<?xml version="1.0" encoding="utf-8"?>
<!-- Generator: Adobe Illustrator 25.0.0, SVG Export Plug-In . SVG Version: 6.00 Build 0)  -->
<svg version="1.1" id="Livello_1" xmlns="http://www.w3.org/2000/svg" xmlns:xlink="http://www.w3.org/1999/xlink" x="0px" y="0px"
	 viewBox="0 0 255 244.9" style="enable-background:new 0 0 255 244.9;" xml:space="preserve">
<image style="overflow:visible;" width="500" height="500" xlink:href="FB4B1B37.jpg"  transform="matrix(1 0 0 1 -529.2785 -109.0751)">
</image>
<g style="display:none;">
	<g style="display:inline;">
		<g>
			<circle style="fill:#606060;" cx="241" cy="115.4" r="14"/>
		</g>
		<g>
			<path style="fill:#606060;" d="M122.4,244.9C54.9,244.9,0,189.9,0,122.4S54.9,0,122.4,0s122.4,54.9,122.4,122.4h-7.8
				c0-63.2-51.4-114.6-114.6-114.6C59.2,7.8,7.8,59.2,7.8,122.4c0,63.2,51.4,114.6,114.6,114.6c53.4,0,100.5-37.8,112-90l7.6,1.7
				c-5.9,26.8-20.9,51.2-42.3,68.7C177.9,235.1,150.5,244.9,122.4,244.9z"/>
		</g>
		<g>
			<circle style="fill:#606060;" cx="180.8" cy="120.1" r="5.2"/>
		</g>
		<g>
			<path style="fill:#606060;" d="M93.3,175.5V64.8l89.4,55.4L93.3,175.5z M95.4,68.5v103.3l83.4-51.6L95.4,68.5z"/>
		</g>
		<g>
			<circle style="fill:#606060;" cx="94.4" cy="66.3" r="5.2"/>
		</g>
		<g>
			<circle style="fill:#606060;" cx="94.4" cy="173.9" r="5.2"/>
		</g>
		<g>
			<circle style="fill:#606060;" cx="127.6" cy="120.1" r="6.2"/>
		</g>
	</g>
</g>
<path style="fill:none;stroke:#FF0000;stroke-miterlimit:10;" d="M239.1,147.9c-11.1,54.2-59.1,95-116.6,95
	c-65.7,0-119-53.3-119-119s53.3-119,119-119c62.7,0,114.1,48.5,118.7,110"/>
<circle style="fill:#FF0000;" cx="239" cy="148.4" r="14"/>
<path style="fill:#FF0000;" d="M173,114.9l-70.2-43.3C99,69.2,94,72,94,76.5v86.6c0,4.5,5,7.3,8.8,4.9l70.2-43.3
	C176.7,122.4,176.7,117.1,173,114.9z"/>
</svg>
