<?xml version="1.0" encoding="utf-8"?>
<!-- Generator: Adobe Illustrator 25.0.0, SVG Export Plug-In . SVG Version: 6.00 Build 0)  -->
<svg version="1.1" id="Livello_1" xmlns="http://www.w3.org/2000/svg" xmlns:xlink="http://www.w3.org/1999/xlink" x="0px" y="0px"
	 viewBox="0 0 255 244.9" style="enable-background:new 0 0 255 244.9;" xml:space="preserve">
<image style="overflow:visible;" width="500" height="500" xlink:href="B6903E1F.jpg"  transform="matrix(1 0 0 1 -529.2785 -109.0751)">
</image>

<path style="fill:none;stroke:#FF0000;stroke-miterlimit:10;" d="M239.1,147.9c-11.1,54.2-59.1,95-116.6,95
	c-65.7,0-119-53.3-119-119s53.3-119,119-119c62.7,0,114.1,48.5,118.7,110"/>
<circle style="fill:#FF0000;" cx="240.5" cy="114.9" r="14"/>
<path style="fill:#FF0000;" d="M173,114.9l-70.2-43.3C99,69.2,94,72,94,76.5v86.6c0,4.5,5,7.3,8.8,4.9l70.2-43.3
	C176.7,122.4,176.7,117.1,173,114.9z"/>
</svg>
